<svg width="119" height="32" viewBox="0 0 119 32" fill="none" xmlns="http://www.w3.org/2000/svg">
<path d="M47.664 10.436V23H45.144V17.654H39.762V23H37.242V10.436H39.762V15.602H45.144V10.436H47.664ZM54.5723 23.162C53.6123 23.162 52.7483 22.952 51.9803 22.532C51.2123 22.1 50.6063 21.494 50.1623 20.714C49.7303 19.934 49.5143 19.034 49.5143 18.014C49.5143 16.994 49.7363 16.094 50.1803 15.314C50.6363 14.534 51.2543 13.934 52.0343 13.514C52.8143 13.082 53.6843 12.866 54.6443 12.866C55.6043 12.866 56.4743 13.082 57.2543 13.514C58.0343 13.934 58.6463 14.534 59.0903 15.314C59.5463 16.094 59.7743 16.994 59.7743 18.014C59.7743 19.034 59.5403 19.934 59.0723 20.714C58.6163 21.494 57.9923 22.1 57.2003 22.532C56.4203 22.952 55.5443 23.162 54.5723 23.162ZM54.5723 20.966C55.0283 20.966 55.4543 20.858 55.8503 20.642C56.2583 20.414 56.5823 20.078 56.8223 19.634C57.0623 19.19 57.1823 18.65 57.1823 18.014C57.1823 17.066 56.9303 16.34 56.4263 15.836C55.9343 15.32 55.3283 15.062 54.6083 15.062C53.8883 15.062 53.2823 15.32 52.7903 15.836C52.3103 16.34 52.0703 17.066 52.0703 18.014C52.0703 18.962 52.3043 19.694 52.7723 20.21C53.2523 20.714 53.8523 20.966 54.5723 20.966ZM66.0509 23.162C65.0909 23.162 64.2269 22.952 63.4589 22.532C62.6909 22.1 62.0849 21.494 61.6409 20.714C61.2089 19.934 60.9929 19.034 60.9929 18.014C60.9929 16.994 61.2149 16.094 61.6589 15.314C62.1149 14.534 62.7329 13.934 63.5129 13.514C64.2929 13.082 65.1629 12.866 66.1229 12.866C67.0829 12.866 67.9529 13.082 68.7329 13.514C69.5129 13.934 70.1249 14.534 70.5689 15.314C71.0249 16.094 71.2529 16.994 71.2529 18.014C71.2529 19.034 71.0189 19.934 70.5509 20.714C70.0949 21.494 69.4709 22.1 68.6789 22.532C67.8989 22.952 67.0229 23.162 66.0509 23.162ZM66.0509 20.966C66.5069 20.966 66.9329 20.858 67.3289 20.642C67.7369 20.414 68.0609 20.078 68.3009 19.634C68.5409 19.19 68.6609 18.65 68.6609 18.014C68.6609 17.066 68.4089 16.34 67.9049 15.836C67.4129 15.32 66.8069 15.062 66.0869 15.062C65.3669 15.062 64.7609 15.32 64.2689 15.836C63.7889 16.34 63.5489 17.066 63.5489 18.014C63.5489 18.962 63.7829 19.694 64.2509 20.21C64.7309 20.714 65.3309 20.966 66.0509 20.966Z" fill="white"/>
<path d="M80.2294 16.556C80.9374 16.688 81.5194 17.042 81.9754 17.618C82.4314 18.194 82.6594 18.854 82.6594 19.598C82.6594 20.27 82.4914 20.864 82.1554 21.38C81.8314 21.884 81.3574 22.28 80.7334 22.568C80.1094 22.856 79.3714 23 78.5194 23H73.1014V10.436H78.2854C79.1374 10.436 79.8694 10.574 80.4814 10.85C81.1054 11.126 81.5734 11.51 81.8854 12.002C82.2094 12.494 82.3714 13.052 82.3714 13.676C82.3714 14.408 82.1734 15.02 81.7774 15.512C81.3934 16.004 80.8774 16.352 80.2294 16.556ZM75.6214 15.62H77.9254C78.5254 15.62 78.9874 15.488 79.3114 15.224C79.6354 14.948 79.7974 14.558 79.7974 14.054C79.7974 13.55 79.6354 13.16 79.3114 12.884C78.9874 12.608 78.5254 12.47 77.9254 12.47H75.6214V15.62ZM78.1594 20.948C78.7714 20.948 79.2454 20.804 79.5814 20.516C79.9294 20.228 80.1034 19.82 80.1034 19.292C80.1034 18.752 79.9234 18.332 79.5634 18.032C79.2034 17.72 78.7174 17.564 78.1054 17.564H75.6214V20.948H78.1594ZM84.0198 17.978C84.0198 16.97 84.2178 16.076 84.6138 15.296C85.0218 14.516 85.5678 13.916 86.2518 13.496C86.9478 13.076 87.7218 12.866 88.5738 12.866C89.3178 12.866 89.9658 13.016 90.5178 13.316C91.0818 13.616 91.5318 13.994 91.8678 14.45V13.028H94.4058V23H91.8678V21.542C91.5438 22.01 91.0938 22.4 90.5178 22.712C89.9538 23.012 89.2998 23.162 88.5558 23.162C87.7158 23.162 86.9478 22.946 86.2518 22.514C85.5678 22.082 85.0218 21.476 84.6138 20.696C84.2178 19.904 84.0198 18.998 84.0198 17.978ZM91.8678 18.014C91.8678 17.402 91.7478 16.88 91.5078 16.448C91.2678 16.004 90.9438 15.668 90.5358 15.44C90.1278 15.2 89.6898 15.08 89.2218 15.08C88.7538 15.08 88.3218 15.194 87.9258 15.422C87.5298 15.65 87.2058 15.986 86.9538 16.43C86.7138 16.862 86.5938 17.378 86.5938 17.978C86.5938 18.578 86.7138 19.106 86.9538 19.562C87.2058 20.006 87.5298 20.348 87.9258 20.588C88.3338 20.828 88.7658 20.948 89.2218 20.948C89.6898 20.948 90.1278 20.834 90.5358 20.606C90.9438 20.366 91.2678 20.03 91.5078 19.598C91.7478 19.154 91.8678 18.626 91.8678 18.014ZM102.393 12.884C103.581 12.884 104.541 13.262 105.273 14.018C106.005 14.762 106.371 15.806 106.371 17.15V23H103.851V17.492C103.851 16.7 103.653 16.094 103.257 15.674C102.861 15.242 102.321 15.026 101.637 15.026C100.941 15.026 100.389 15.242 99.981 15.674C99.585 16.094 99.387 16.7 99.387 17.492V23H96.867V13.028H99.387V14.27C99.723 13.838 100.149 13.502 100.665 13.262C101.193 13.01 101.769 12.884 102.393 12.884ZM114.671 23L111.287 18.752V23H108.767V9.68H111.287V17.258L114.635 13.028H117.911L113.519 18.032L117.947 23H114.671Z" fill="#5CE1E6"/>
<path d="M16 0C12.8355 -3.77363e-08 9.74206 0.938383 7.11088 2.69649C4.47969 4.45459 2.42893 6.95345 1.21793 9.87706C0.00692588 12.8007 -0.309928 16.0177 0.307435 19.1214C0.924798 22.2251 2.44865 25.0761 4.68629 27.3137C6.92393 29.5513 9.77485 31.0752 12.8786 31.6926C15.9822 32.3099 19.1993 31.9931 22.1229 30.7821C25.0465 29.5711 27.5454 27.5203 29.3035 24.8891C31.0616 22.2579 32 19.1645 32 16L24 16C24 17.5823 23.5308 19.129 22.6518 20.4446C21.7727 21.7602 20.5233 22.7855 19.0615 23.391C17.5997 23.9965 15.9911 24.155 14.4393 23.8463C12.8874 23.5376 11.462 22.7757 10.3431 21.6569C9.22432 20.538 8.4624 19.1126 8.15372 17.5607C7.84504 16.0089 8.00346 14.4003 8.60896 12.9385C9.21447 11.4767 10.2398 10.2273 11.5554 9.34824C12.871 8.46919 14.4177 8 16 8L16 0Z" fill="white"/>
<path d="M16 0C13.8989 -2.5056e-08 11.8183 0.413852 9.87706 1.21793C7.93585 2.022 6.17203 3.20055 4.68629 4.68629C3.20055 6.17203 2.022 7.93586 1.21793 9.87707C0.413852 11.8183 -3.17265e-07 13.8989 0 16H8C8 14.9494 8.20693 13.9091 8.60896 12.9385C9.011 11.9679 9.60028 11.086 10.3431 10.3431C11.086 9.60028 11.9679 9.011 12.9385 8.60896C13.9091 8.20693 14.9494 8 16 8V0Z" fill="#5CE1E6"/>
<circle cx="16" cy="16" r="5" fill="#5CE1E6"/>
<path d="M21 16C21 15.3434 20.8707 14.6932 20.6194 14.0866C20.3681 13.48 19.9998 12.9288 19.5355 12.4645C19.0712 12.0002 18.52 11.6319 17.9134 11.3806C17.3068 11.1293 16.6566 11 16 11C15.3434 11 14.6932 11.1293 14.0866 11.3806C13.48 11.6319 12.9288 12.0002 12.4645 12.4645C12.0002 12.9288 11.6319 13.48 11.3806 14.0866C11.1293 14.6932 11 15.3434 11 16L16 16H21Z" fill="white"/>
</svg>
